<svg viewBox="0 0 616 168" version="1.1" xmlns="http://www.w3.org/2000/svg" xmlns:xlink="http://www.w3.org/1999/xlink" class="logo">
    <defs>
         <filter x="-52.2%" y="-52.2%" width="204.4%" height="204.4%" filterUnits="objectBoundingBox" id="white-1">
            <feOffset dx="0" dy="0" in="SourceAlpha" result="shadowOffsetOuter1"></feOffset>
            <feGaussianBlur stdDeviation="15" in="shadowOffsetOuter1" result="shadowBlurOuter1"></feGaussianBlur>
            <feColorMatrix values="0 0 0 0 1   0 0 0 0 1   0 0 0 0 1  0 0 0 1 0" type="matrix" in="shadowBlurOuter1"></feColorMatrix>
        </filter>
        <filter x="-17.4%" y="-17.4%" width="134.8%" height="134.8%" filterUnits="objectBoundingBox" id="white-2">
            <feOffset dx="0" dy="0" in="SourceAlpha" result="shadowOffsetOuter1"></feOffset>
            <feGaussianBlur stdDeviation="5" in="shadowOffsetOuter1" result="shadowBlurOuter1"></feGaussianBlur>
            <feColorMatrix values="0 0 0 0 1   0 0 0 0 1   0 0 0 0 1  0 0 0 1 0" type="matrix" in="shadowBlurOuter1"></feColorMatrix>
        </filter>
        <filter x="-10.4%" y="-5.8%" width="116.2%" height="116.2%" filterUnits="objectBoundingBox" id="white-3">
            <feOffset dx="-2" dy="2" in="SourceAlpha" result="shadowOffsetOuter1"></feOffset>
            <feGaussianBlur stdDeviation="2" in="shadowOffsetOuter1" result="shadowBlurOuter1"></feGaussianBlur>
            <feColorMatrix values="0 0 0 0 1   0 0 0 0 1   0 0 0 0 1  0 0 0 1 0" type="matrix" in="shadowBlurOuter1"></feColorMatrix>
        </filter>

        <filter x="-52.2%" y="-52.2%" width="204.4%" height="204.4%" filterUnits="objectBoundingBox" id="highlight-1">
            <feOffset dx="0" dy="0" in="SourceAlpha" result="shadowOffsetOuter1"></feOffset>
            <feGaussianBlur stdDeviation="15" in="shadowOffsetOuter1" result="shadowBlurOuter1"></feGaussianBlur>
            <feColorMatrix color-interpolation-filters="sRGB" type="matrix" values="0.5 0 0 1 0.75   0 0.2 0 0.25 0.7   0 0 0.65 0 0.15  0 0 0 1 0" in="shadowBlurOuter1"></feColorMatrix>
        </filter>
        <filter x="-17.4%" y="-17.4%" width="134.8%" height="134.8%" filterUnits="objectBoundingBox" id="highlight-2">
            <feOffset dx="0" dy="0" in="SourceAlpha" result="shadowOffsetOuter1"></feOffset>
            <feGaussianBlur stdDeviation="5" in="shadowOffsetOuter1" result="shadowBlurOuter1"></feGaussianBlur>
            <feColorMatrix color-interpolation-filters="sRGB" type="matrix" values="0.5 0 0 1 0.75   0 0.2 0 0.25 0.7   0 0 0.65 0 0.15  0 0 0 1 0" in="shadowBlurOuter1"></feColorMatrix>
        </filter>
        <filter x="-10.4%" y="-5.8%" width="116.2%" height="116.2%" filterUnits="objectBoundingBox" id="highlight-3">
            <feOffset dx="-2" dy="2" in="SourceAlpha" result="shadowOffsetOuter1"></feOffset>
            <feGaussianBlur stdDeviation="2" in="shadowOffsetOuter1" result="shadowBlurOuter1"></feGaussianBlur>
            <feColorMatrix color-interpolation-filters="sRGB" type="matrix" values="0.5 0 0 1 0.75   0 0.2 0 0.25 0.7   0 0 0.65 0 0.15  0 0 0 1 0" in="shadowBlurOuter1"></feColorMatrix>
        </filter>
    </defs>
    <g fill="#fefefe" class="letters">
        <path d="M13.0872483,134.724362 L62.4201342,134.724362 C84.7711409,134.724362 94.6369128,123.447181 94.6369128,106.53443 C94.6369128,88.6149664 82.7577181,78.5478523 62.4201342,78.5478523 L13.0872483,78.5478523 L13.0872483,134.724362 Z M13.0872483,66.2639597 L61.8161074,66.2639597 C80.9436242,66.2639597 91.4134228,55.9934899 91.4134228,39.8861074 C91.4134228,23.174698 79.7375839,13.1075839 61.8161074,13.1075839 L13.0872483,13.1075839 L13.0872483,66.2639597 Z M0,147.41094 L0,0.622348993 L62.2167785,0.622348993 C88.9973154,0.622348993 104.907383,15.5236913 104.907383,37.8726846 C104.907383,53.1767114 97.2543624,65.4585906 83.7644295,71.0961745 L83.7644295,72.7069128 C99.6704698,77.7404698 108.52953,91.2304027 108.52953,107.541141 C108.52953,131.90557 90.6100671,147.41094 61.8161074,147.41094 L0,147.41094 Z" id="Fill-4"></path>
        <path d="M195.768121,87.4069128 C195.768121,64.8545638 184.088255,52.3713423 163.35,52.3713423 C143.01443,52.3713423 129.119799,66.2639597 128.31443,87.4069128 L195.768121,87.4069128 Z M128.515772,134.724362 C119.654698,124.858591 115.227181,111.970671 115.227181,95.6619463 C115.227181,79.1498658 119.654698,66.0626174 128.31443,56.1968456 C137.17349,46.3310738 148.851342,41.2975168 163.35,41.2975168 C191.741275,41.2975168 208.454698,59.6196644 208.454698,88.0109396 C208.454698,91.6351007 208.251342,94.8565772 207.848658,97.8767114 L128.31443,97.8767114 C128.113087,123.447181 142.007718,138.348523 163.954027,138.348523 C181.068121,138.348523 193.150671,129.489463 196.170805,116.603557 L209.058725,116.603557 C205.633893,136.133758 187.71443,149.424362 163.35,149.424362 C149.054698,149.424362 137.374832,144.590134 128.515772,134.724362 L128.515772,134.724362 Z"></path>
        <path d="M250.769597,138.147584 C261.040067,138.147584 269.496443,134.926107 275.738054,128.281812 C282.18302,121.637517 285.402483,112.977785 285.402483,102.507987 L285.402483,96.2663758 L256.409195,96.2663758 C237.279664,96.2663758 227.816577,103.917383 227.816577,117.610671 C227.816577,130.697919 236.472282,138.147584 250.769597,138.147584 M256.205839,85.5932215 L285.402483,85.5932215 L285.402483,77.1368456 C285.402483,60.224094 276.342081,51.7677181 258.422617,51.7677181 C242.313221,51.7677181 232.042752,60.0207383 231.239396,72.3046309 L219.156846,72.3046309 C219.762886,63.0428859 223.789732,55.5932215 231.239396,49.9536242 C238.68906,44.114698 247.952819,41.295906 259.026644,41.295906 C284.196443,41.295906 297.885705,55.1905369 297.885705,78.5462416 L297.885705,128.684497 C297.686376,133.516711 298.08906,136.536846 304.934698,137.342215 C306.344094,137.342215 307.75349,137.140872 308.760201,136.93953 L308.760201,147.411342 C306.948121,148.013356 304.733356,148.418054 302.115906,148.418054 C291.442752,148.418054 286.00651,142.17443 286.209866,129.691208 L284.999799,129.691208 C280.169597,141.570403 265.872282,149.424765 249.561544,149.424765 C228.823289,149.424765 214.729329,137.140872 214.729329,118.816711 C214.729329,97.071745 230.432013,85.5932215 256.205839,85.5932215"></path>
        <path d="M403.793557,112.977785 C402.585503,124.053624 397.954631,132.912685 389.699597,139.55698 C381.44255,146.201275 371.174094,149.424765 358.890201,149.424765 C344.192215,149.424765 332.31302,144.590537 323.45396,134.926107 C314.592886,125.060336 310.163356,111.971074 310.163356,95.6603356 C310.163356,79.3516107 314.592886,66.0630201 323.45396,56.1972483 C332.514362,46.3294631 344.596913,41.295906 359.697584,41.295906 C371.576779,41.295906 381.44255,44.5173826 389.296913,50.9603356 C397.149262,57.2039597 401.780134,65.6603356 402.988188,75.9308054 L389.90094,75.9308054 C386.67745,60.8281208 374.39557,53.376443 359.093557,53.376443 C336.339866,53.376443 323.250604,70.0898658 323.250604,95.8636913 C323.250604,122.241544 337.143221,137.543557 358.890201,137.543557 C376.006309,137.543557 388.690872,127.677785 390.502953,112.977785 L403.793557,112.977785 Z"></path>
        <path d="M529.831007,147.410537 L529.831007,43.3105369 L540.906846,43.3105369 L542.716913,62.8407383 L543.92698,62.8407383 C550.369933,49.3508054 563.859866,41.2971141 579.365235,41.2971141 C601.714228,41.2971141 615.608859,57.2031544 615.608859,82.7736242 L615.608859,147.410537 L602.924295,147.410537 L602.924295,83.9836913 C602.924295,63.6461074 594.063221,53.377651 576.345101,53.377651 C566.277987,53.377651 558.02094,57.0018121 551.779329,64.4514765 C545.537718,71.6997987 542.517584,81.1648993 542.517584,93.044094 L542.517584,147.410537 L529.831007,147.410537 Z"></path>
    </g>
    <g class="circle" id="circles">
    	<path d="M509.227047,94.3536242 C509.227047,118.154295 489.932416,137.45094 466.129732,137.45094 C442.325034,137.45094 423.030403,118.154295 423.030403,94.3536242 C423.030403,70.5509396 442.325034,51.2542953 466.129732,51.2542953 C489.932416,51.2542953 509.227047,70.5509396 509.227047,94.3536242" filter="url(#white-1)" fill="#010101"></path>
    	<path d="M509.227047,94.3536242 C509.227047,118.154295 489.932416,137.45094 466.129732,137.45094 C442.325034,137.45094 423.030403,118.154295 423.030403,94.3536242 C423.030403,70.5509396 442.325034,51.2542953 466.129732,51.2542953 C489.932416,51.2542953 509.227047,70.5509396 509.227047,94.3536242" filter="url(#white-2)" fill="#010101"></path>
    	<path d="M509.227047,94.3536242 C509.227047,118.154295 489.932416,137.45094 466.129732,137.45094 C442.325034,137.45094 423.030403,118.154295 423.030403,94.3536242 C423.030403,70.5509396 442.325034,51.2542953 466.129732,51.2542953 C489.932416,51.2542953 509.227047,70.5509396 509.227047,94.3536242" filter="url(#white-3)" fill="#010101"></path>
    	<path d="M509.227047,94.3536242 C509.227047,118.154295 489.932416,137.45094 466.129732,137.45094 C442.325034,137.45094 423.030403,118.154295 423.030403,94.3536242 C423.030403,70.5509396 442.325034,51.2542953 466.129732,51.2542953 C489.932416,51.2542953 509.227047,70.5509396 509.227047,94.3536242" fill="#010101"></path>        
    </g>
     <g class="circle circle--colour" id="circles-colour">
    	<path d="M509.227047,94.3536242 C509.227047,118.154295 489.932416,137.45094 466.129732,137.45094 C442.325034,137.45094 423.030403,118.154295 423.030403,94.3536242 C423.030403,70.5509396 442.325034,51.2542953 466.129732,51.2542953 C489.932416,51.2542953 509.227047,70.5509396 509.227047,94.3536242" filter="url(#highlight-1)" fill="#010101"></path>
    	<path d="M509.227047,94.3536242 C509.227047,118.154295 489.932416,137.45094 466.129732,137.45094 C442.325034,137.45094 423.030403,118.154295 423.030403,94.3536242 C423.030403,70.5509396 442.325034,51.2542953 466.129732,51.2542953 C489.932416,51.2542953 509.227047,70.5509396 509.227047,94.3536242" filter="url(#highlight-2)" fill="#010101"></path>
    	<path d="M509.227047,94.3536242 C509.227047,118.154295 489.932416,137.45094 466.129732,137.45094 C442.325034,137.45094 423.030403,118.154295 423.030403,94.3536242 C423.030403,70.5509396 442.325034,51.2542953 466.129732,51.2542953 C489.932416,51.2542953 509.227047,70.5509396 509.227047,94.3536242" filter="url(#highlight-3)" fill="#010101"></path>
    	<path d="M509.227047,94.3536242 C509.227047,118.154295 489.932416,137.45094 466.129732,137.45094 C442.325034,137.45094 423.030403,118.154295 423.030403,94.3536242 C423.030403,70.5509396 442.325034,51.2542953 466.129732,51.2542953 C489.932416,51.2542953 509.227047,70.5509396 509.227047,94.3536242" fill="#010101"></path>        
    </g>
</svg>
